<?xml version="1.0" encoding="UTF-8"?>
<svg id="uuid-6ee387ac-e8d2-41b2-89b4-dd5950b81cba" data-name="Calque 2" xmlns="http://www.w3.org/2000/svg" xmlns:xlink="http://www.w3.org/1999/xlink" viewBox="0 0 464.42 543.45">
  <defs>
    <style>
      .uuid-10863b10-d316-481d-a625-cd20ac4e385d {
        fill: #153d54;
      }

      .uuid-994dce35-b398-4659-99df-cfbcef07fa83 {
        fill: url(#uuid-4fee7671-d28c-41f8-84fe-7ece0556d957);
      }

      .uuid-fe6ac61a-e0f2-42ed-803f-f1b5752edf1c {
        fill: url(#uuid-414575e8-677e-4c37-9f59-3de03aa1b22c);
      }

      .uuid-50ef0956-1252-43b8-8553-e0ed73ff8ea2 {
        fill: url(#uuid-0609c12f-2cd1-4bc2-a225-29c6d3932cf4);
      }

      .uuid-46d2decb-7a59-462e-b30d-0460d2082254 {
        fill: url(#uuid-9f466ae1-77d6-44e8-b834-9ec56bc3e193);
      }

      .uuid-5148d970-c0d4-4d9d-ab58-320e2a57a168 {
        fill: url(#uuid-e9c77ffc-9c2a-4e62-bbbc-fb53b2c8d88a);
      }

      .uuid-5c6be6c6-5d4e-41c1-b7b3-df2b03051b84 {
        fill: #ff4e46;
      }

      .uuid-c75675b0-cc17-49fa-a0f4-c763a2328872 {
        fill: url(#uuid-0dd464ab-e041-4f38-be18-b8baa4d71ddb);
      }
    </style>
    <linearGradient id="uuid-414575e8-677e-4c37-9f59-3de03aa1b22c" data-name="Dégradé sans nom 38" x1="373.91" y1="249.25" x2="423.39" y2="249.25" gradientUnits="userSpaceOnUse">
      <stop offset="0" stop-color="#03a1c1"/>
      <stop offset="1" stop-color="#27d6cb"/>
    </linearGradient>
    <linearGradient id="uuid-e9c77ffc-9c2a-4e62-bbbc-fb53b2c8d88a" data-name="Dégradé sans nom 27" x1="169.95" y1="355.16" x2="402.83" y2="355.16" gradientUnits="userSpaceOnUse">
      <stop offset="0" stop-color="#ff3945"/>
      <stop offset="1" stop-color="#ff684d"/>
    </linearGradient>
    <linearGradient id="uuid-0dd464ab-e041-4f38-be18-b8baa4d71ddb" data-name="Dégradé sans nom 46" x1="206.22" y1="331.39" x2="464.42" y2="331.39" gradientUnits="userSpaceOnUse">
      <stop offset="0" stop-color="#03a1c1"/>
      <stop offset="1" stop-color="#27d5cb"/>
    </linearGradient>
    <linearGradient id="uuid-9f466ae1-77d6-44e8-b834-9ec56bc3e193" data-name="Dégradé sans nom 9" x1="140.29" y1="226.35" x2="317.79" y2="226.35" gradientTransform="translate(-21.27 35.32) rotate(-7.14)" gradientUnits="userSpaceOnUse">
      <stop offset="0" stop-color="#03a1c1"/>
      <stop offset="1" stop-color="#27d6cb"/>
    </linearGradient>
    <linearGradient id="uuid-0609c12f-2cd1-4bc2-a225-29c6d3932cf4" data-name="Dégradé sans nom 9" x1="145.34" y1="288.3" x2="323.47" y2="288.3" gradientTransform="matrix(1,0,0,1,0,0)" xlink:href="#uuid-9f466ae1-77d6-44e8-b834-9ec56bc3e193"/>
    <linearGradient id="uuid-4fee7671-d28c-41f8-84fe-7ece0556d957" data-name="Dégradé sans nom 18" x1="270.43" y1="449.98" x2="394.93" y2="449.98" gradientUnits="userSpaceOnUse">
      <stop offset="0" stop-color="#03a1c1"/>
      <stop offset=".33" stop-color="#03a1c1"/>
      <stop offset="1" stop-color="#27d6cb"/>
    </linearGradient>
  </defs>
  <g id="uuid-2a523e41-81b7-4678-a3ba-fb05fcfb8ecd" data-name="Calque 1">
    <path class="uuid-10863b10-d316-481d-a625-cd20ac4e385d" d="m39.14,117.78c.06,11.22-8.05,24.32-19.26,24.46C8.71,142.38.19,129.61,0,118.39c-.2-11.69,8.62-24.92,19.87-24.76,10.98.15,19.2,12.96,19.26,24.15Z"/>
    <path class="uuid-10863b10-d316-481d-a625-cd20ac4e385d" d="m86.98,77.89c2.17,11.01-3.34,25.4-14.32,27.64-10.94,2.24-21.71-8.71-24-19.69-2.39-11.45,3.78-26.09,14.87-28.06,10.81-1.91,21.29,9.12,23.46,20.1Z"/>
    <path class="uuid-10863b10-d316-481d-a625-cd20ac4e385d" d="m137.75,53.76c2.46,12.12-3.42,28.05-14.23,30.09-10.63,2-21.8-10.24-24.1-22.14-2.35-12.15,3.79-27.95,14.62-29.84,10.57-1.84,21.35,10.31,23.7,21.89Z"/>
    <path class="uuid-10863b10-d316-481d-a625-cd20ac4e385d" d="m210.04,22.7c14.1,25.47,1.08,65.42-19.3,70.7-8.9,2.31-17.08-2.55-20.14-4.36-21.51-12.76-26.43-46.69-15.9-69.1,2.42-5.14,7.82-16.63,18.75-19.36,14.29-3.57,29.83,9.91,36.59,22.11Z"/>
    <path class="uuid-fe6ac61a-e0f2-42ed-803f-f1b5752edf1c" d="m399.9,216.84s-1.83-21.1-8.87-33.94c48.9,24.5,41.71,98.78-17.12,132.69,0,0,38.79-28.83,26.43-97.11"/>
    <path class="uuid-5148d970-c0d4-4d9d-ab58-320e2a57a168" d="m169.95,461.81c1.24-135.08,197.83-119.78,229.95-244.98.61.92,14.98,63.59-25.99,98.75-4.64,10.38-90.58,44.54-101.5,50.14-48.08,23.06-84.91,68.35-82.82,127.76l-19.64-31.67"/>
    <path class="uuid-c75675b0-cc17-49fa-a0f4-c763a2328872" d="m235.34,169.14v-17.43c74.3-64.55,229.9-33.84,229.07,103.42-9.46,63.24-45.03,99.34-98.6,122.9-49.34,23.24-91.41,29.91-110.75,93.32-2.98,9.4-10.54,25.45-1.83,58.7-13.54,11.66-19.79,21.37-39.44,3.67-20.39-39.64-1.28-130.52,78.2-155.24,50.44-18.57,88.96-30.73,105.47-51.14,42.2-32.93,69.28-110.99,7.11-154.32-57.21-42.74-120.14-34.56-169.22-3.9Z"/>
  </g>
  <g id="uuid-0c8a1ce7-80b8-4159-8830-36ead455ea05" data-name="Calque 2">
    <path class="uuid-10863b10-d316-481d-a625-cd20ac4e385d" d="m89,116.82s-54.11,18.04-74.6,67.87c-20.48,49.83-15.29,102.42,23.54,161.12,38.83,58.7,125.35,155.01,151.03,166.93l.61-19.26s-55.95-85.91-61.15-118.32c-5.2-32.41-19.87-80.41,47.39-139.41,8.87-7.34,52.59-35.16,43.72-81.02-8.87-45.86-64.82-48.61-81.32-47.08-16.51,1.53-35.18,3.03-49.22,9.17Z"/>
    <path class="uuid-46d2decb-7a59-462e-b30d-0460d2082254" d="m152.49,293.77c40.87-37.42,111.99-84.65,165.29-108.54-3.15-24.72-28.53-11.79-46.13-3.64-11.84,5.49-20.3,11.26-29.3,17.42-18.23,12.47-35.45,25.35-55.04,41.98-16.49,14-23.72,21.36-29.05,33.03-3.55,7.77-5.06,14.82-5.77,19.75Z"/>
    <path class="uuid-50ef0956-1252-43b8-8553-e0ed73ff8ea2" d="m145.34,373.22c32.96-97.42,178.91-106.09,178.13-169.83-14.59,6.85-35.38,17.02-59.82,30.43-84.74,46.52-99,69.32-104.47,79.56-6.21,11.62-13.94,31.1-13.84,59.84Z"/>
    <path class="uuid-994dce35-b398-4659-99df-cfbcef07fa83" d="m271.57,512.75s113.5-109.95,123.36-125.54c-23.66,13.86-55.46,20.81-79.08,35.17-25.7,12.72-51.18,55.98-44.28,90.37Z"/>
    <path class="uuid-5c6be6c6-5d4e-41c1-b7b3-df2b03051b84" d="m151.34,401.65l6.11,20.94c40.27-96.47,124.57-92.37,189.86-154.7,7.79-7.19,32.25-33.79,34.7-53.05-.15-32.91-9.78-51.74-49.99-53.2,23.24,41.19,6.2,94.63-51.37,120.61-65.52,32.35-104.71,58.01-129.32,119.39Z"/>
  </g>
</svg>